#Comment line ignore any data following # character 
#Hierarchical Translation and Rotation (.htr) file 
[Header]	
#Header keywords are followed by a single value 
FileType HTR		#Single word string
DataType HTRS		#Translation followed by rotation and scale data
FileVersion 1		#integer
NumSegments 84		#integer
NumFrames 2		#integer
DataFrameRate 30		#integer, data frame rate in this file
EulerRotationOrder ZYX
CalibrationUnits mm
RotationUnits Degrees
GlobalAxisofGravity Y
BoneLengthAxis Y
ScaleFactor 1.00
[SegmentNames&Hierarchy]
#CHILD	PARENT
MASTER GLOBAL
root MASTER
chest root
L_mid_tent01 root
R_mid_tent01 root
spine01 root
Bip01_Neck chest
L_humerus chest
R_humerus chest
weapon_bone chest
Bip01_Head Bip01_Neck
eye_left_bone Bip01_Head
eye_right_bone Bip01_Head
L_forearm L_humerus
L_front_hand L_forearm
L_weapon_bone L_forearm
L_front_hand01_01 L_front_hand
L_front_hand02_01 L_front_hand
L_front_hand03_01 L_front_hand
L_front_hand01_02 L_front_hand01_01
L_front_hand02_02 L_front_hand02_01
L_front_hand03_02 L_front_hand03_01
R_forearm R_humerus
R_front_hand R_forearm
R_weapon_bone R_forearm
R_front_hand01_01 R_front_hand
R_front_hand02_01 R_front_hand
R_front_hand03_01 R_front_hand
R_front_hand01_02 R_front_hand01_01
R_front_hand02_02 R_front_hand02_01
R_front_hand03_02 R_front_hand03_01
null_rope01_connect L_mid_tent01
Rope1_Seg01 null_rope01_connect
Rope1_Seg02 Rope1_Seg01
Rope1_Seg03 Rope1_Seg02
Rope1_Seg04 Rope1_Seg03
Rope1_Seg05 Rope1_Seg04
Rope1_Seg06 Rope1_Seg05
Rope1_Seg07 Rope1_Seg06
Rope1_Seg09 Rope1_Seg07
L_mid_hand01 Rope1_Seg09
L_mid_hand02 Rope1_Seg09
L_mid_hand03 Rope1_Seg09
null_rope02_connect R_mid_tent01
Rope2_Seg01 null_rope02_connect
Rope2_Seg02 Rope2_Seg01
Rope2_Seg03 Rope2_Seg02
Rope2_Seg04 Rope2_Seg03
Rope2_Seg05 Rope2_Seg04
Rope2_Seg06 Rope2_Seg05
Rope2_Seg07 Rope2_Seg06
Rope2_Seg09 Rope2_Seg07
R_mid_hand01 Rope2_Seg09
R_mid_hand02 Rope2_Seg09
R_mid_hand03 Rope2_Seg09
spine02 spine01
spine03 spine02
pelvis spine03
null_rope03_connect pelvis
null_rope04_connect pelvis
Rope3_Seg01 null_rope03_connect
Rope3_Seg02 Rope3_Seg01
Rope3_Seg03 Rope3_Seg02
Rope3_Seg04 Rope3_Seg03
Rope3_Seg05 Rope3_Seg04
Rope3_Seg06 Rope3_Seg05
Rope3_Seg07 Rope3_Seg06
Rope3_Seg08 Rope3_Seg07
Rope3_Seg09 Rope3_Seg08
R_rear_hand01 Rope3_Seg09
R_rear_hand02 Rope3_Seg09
R_rear_hand03 Rope3_Seg09
Rope4_Seg01 null_rope04_connect
Rope4_Seg02 Rope4_Seg01
Rope4_Seg03 Rope4_Seg02
Rope4_Seg04 Rope4_Seg03
Rope4_Seg05 Rope4_Seg04
Rope4_Seg06 Rope4_Seg05
Rope4_Seg07 Rope4_Seg06
Rope4_Seg08 Rope4_Seg07
Rope4_Seg09 Rope4_Seg08
L_rear_hand01 Rope4_Seg09
L_rear_hand02 Rope4_Seg09
L_rear_hand03 Rope4_Seg09
[BasePosition]
#SegmentName Tx, Ty, Tz, Rx, Ry, Rz, BoneLength
MASTER 0.000000 0.000000 0.000000 -90.000000 0.000000 0.000000 10.000000 
root 0.000000 0.000000 0.000000 0.000000 0.000000 0.000000 10.000000 
chest 0.000000 0.000000 0.000000 0.000000 0.000000 0.000000 10.000000 
L_mid_tent01 0.000000 0.000000 0.000000 0.000000 0.000000 0.000000 10.000000 
R_mid_tent01 0.000000 0.000000 0.000000 0.000000 0.000000 0.000000 10.000000 
spine01 0.000000 0.000000 0.000000 0.000000 0.000000 0.000000 10.000000 
Bip01_Neck 0.000000 0.000000 0.000000 0.000000 0.000000 0.000000 10.000000 
L_humerus 0.000000 0.000000 0.000000 0.000000 0.000000 0.000000 10.000000 
R_humerus 0.000000 0.000000 0.000000 0.000000 0.000000 0.000000 10.000000 
weapon_bone 0.000000 0.000000 0.000000 0.000000 0.000000 0.000000 10.000000 
Bip01_Head 0.000000 0.000000 0.000000 0.000000 0.000000 0.000000 10.000000 
eye_left_bone 0.000000 0.000000 0.000000 0.000000 0.000000 0.000000 10.000000 
eye_right_bone 0.000000 0.000000 0.000000 0.000000 0.000000 0.000000 10.000000 
L_forearm 0.000000 0.000000 0.000000 0.000000 0.000000 0.000000 10.000000 
L_front_hand 0.000000 0.000000 0.000000 0.000000 0.000000 0.000000 10.000000 
L_weapon_bone 0.000000 0.000000 0.000000 0.000000 0.000000 0.000000 10.000000 
L_front_hand01_01 0.000000 0.000000 0.000000 0.000000 0.000000 0.000000 10.000000 
L_front_hand02_01 0.000000 0.000000 0.000000 0.000000 0.000000 0.000000 10.000000 
L_front_hand03_01 0.000000 0.000000 0.000000 0.000000 0.000000 0.000000 10.000000 
L_front_hand01_02 0.000000 0.000000 0.000000 0.000000 0.000000 0.000000 10.000000 
L_front_hand02_02 0.000000 0.000000 0.000000 0.000000 0.000000 0.000000 10.000000 
L_front_hand03_02 0.000000 0.000000 0.000000 0.000000 0.000000 0.000000 10.000000 
R_forearm 0.000000 0.000000 0.000000 0.000000 0.000000 0.000000 10.000000 
R_front_hand 0.000000 0.000000 0.000000 0.000000 0.000000 0.000000 10.000000 
R_weapon_bone 0.000000 0.000000 0.000000 0.000000 0.000000 0.000000 10.000000 
R_front_hand01_01 0.000000 0.000000 0.000000 0.000000 0.000000 0.000000 10.000000 
R_front_hand02_01 0.000000 0.000000 0.000000 0.000000 0.000000 0.000000 10.000000 
R_front_hand03_01 0.000000 0.000000 0.000000 0.000000 0.000000 0.000000 10.000000 
R_front_hand01_02 0.000000 0.000000 0.000000 0.000000 0.000000 0.000000 10.000000 
R_front_hand02_02 0.000000 0.000000 0.000000 0.000000 0.000000 0.000000 10.000000 
R_front_hand03_02 0.000000 0.000000 0.000000 0.000000 0.000000 0.000000 10.000000 
null_rope01_connect 0.000000 0.000000 0.000000 0.000000 0.000000 0.000000 10.000000 
Rope1_Seg01 0.000000 0.000000 0.000000 0.000000 0.000000 0.000000 10.000000 
Rope1_Seg02 0.000000 0.000000 0.000000 0.000000 0.000000 0.000000 10.000000 
Rope1_Seg03 0.000000 0.000000 0.000000 0.000000 0.000000 0.000000 10.000000 
Rope1_Seg04 0.000000 0.000000 0.000000 0.000000 0.000000 0.000000 10.000000 
Rope1_Seg05 0.000000 0.000000 0.000000 0.000000 0.000000 0.000000 10.000000 
Rope1_Seg06 0.000000 0.000000 0.000000 0.000000 0.000000 0.000000 10.000000 
Rope1_Seg07 0.000000 0.000000 0.000000 0.000000 0.000000 0.000000 10.000000 
Rope1_Seg09 0.000000 0.000000 0.000000 0.000000 0.000000 0.000000 10.000000 
L_mid_hand01 0.000000 0.000000 0.000000 0.000000 0.000000 0.000000 10.000000 
L_mid_hand02 0.000000 0.000000 0.000000 0.000000 0.000000 0.000000 10.000000 
L_mid_hand03 0.000000 0.000000 0.000000 0.000000 0.000000 0.000000 10.000000 
null_rope02_connect 0.000000 0.000000 0.000000 0.000000 0.000000 0.000000 10.000000 
Rope2_Seg01 0.000000 0.000000 0.000000 0.000000 0.000000 0.000000 10.000000 
Rope2_Seg02 0.000000 0.000000 0.000000 0.000000 0.000000 0.000000 10.000000 
Rope2_Seg03 0.000000 0.000000 0.000000 0.000000 0.000000 0.000000 10.000000 
Rope2_Seg04 0.000000 0.000000 0.000000 0.000000 0.000000 0.000000 10.000000 
Rope2_Seg05 0.000000 0.000000 0.000000 0.000000 0.000000 0.000000 10.000000 
Rope2_Seg06 0.000000 0.000000 0.000000 0.000000 0.000000 0.000000 10.000000 
Rope2_Seg07 0.000000 0.000000 0.000000 0.000000 0.000000 0.000000 10.000000 
Rope2_Seg09 0.000000 0.000000 0.000000 0.000000 0.000000 0.000000 10.000000 
R_mid_hand01 0.000000 0.000000 0.000000 0.000000 0.000000 0.000000 10.000000 
R_mid_hand02 0.000000 0.000000 0.000000 0.000000 0.000000 0.000000 10.000000 
R_mid_hand03 0.000000 0.000000 0.000000 0.000000 0.000000 0.000000 10.000000 
spine02 0.000000 0.000000 0.000000 0.000000 0.000000 0.000000 10.000000 
spine03 0.000000 0.000000 0.000000 0.000000 0.000000 0.000000 10.000000 
pelvis 0.000000 0.000000 0.000000 0.000000 0.000000 0.000000 10.000000 
null_rope03_connect 0.000000 0.000000 0.000000 0.000000 0.000000 0.000000 10.000000 
null_rope04_connect 0.000000 0.000000 0.000000 0.000000 0.000000 0.000000 10.000000 
Rope3_Seg01 0.000000 0.000000 0.000000 0.000000 0.000000 0.000000 10.000000 
Rope3_Seg02 0.000000 0.000000 0.000000 0.000000 0.000000 0.000000 10.000000 
Rope3_Seg03 0.000000 0.000000 0.000000 0.000000 0.000000 0.000000 10.000000 
Rope3_Seg04 0.000000 0.000000 0.000000 0.000000 0.000000 0.000000 10.000000 
Rope3_Seg05 0.000000 0.000000 0.000000 0.000000 0.000000 0.000000 10.000000 
Rope3_Seg06 0.000000 0.000000 0.000000 0.000000 0.000000 0.000000 10.000000 
Rope3_Seg07 0.000000 0.000000 0.000000 0.000000 0.000000 0.000000 10.000000 
Rope3_Seg08 0.000000 0.000000 0.000000 0.000000 0.000000 0.000000 10.000000 
Rope3_Seg09 0.000000 0.000000 0.000000 0.000000 0.000000 0.000000 10.000000 
R_rear_hand01 0.000000 0.000000 0.000000 0.000000 0.000000 0.000000 10.000000 
R_rear_hand02 0.000000 0.000000 0.000000 0.000000 0.000000 0.000000 10.000000 
R_rear_hand03 0.000000 0.000000 0.000000 0.000000 0.000000 0.000000 10.000000 
Rope4_Seg01 0.000000 0.000000 0.000000 0.000000 0.000000 0.000000 10.000000 
Rope4_Seg02 0.000000 0.000000 0.000000 0.000000 0.000000 0.000000 10.000000 
Rope4_Seg03 0.000000 0.000000 0.000000 0.000000 0.000000 0.000000 10.000000 
Rope4_Seg04 0.000000 0.000000 0.000000 0.000000 0.000000 0.000000 10.000000 
Rope4_Seg05 0.000000 0.000000 0.000000 0.000000 0.000000 0.000000 10.000000 
Rope4_Seg06 0.000000 0.000000 0.000000 0.000000 0.000000 0.000000 10.000000 
Rope4_Seg07 0.000000 0.000000 0.000000 0.000000 0.000000 0.000000 10.000000 
Rope4_Seg08 0.000000 0.000000 0.000000 0.000000 0.000000 0.000000 10.000000 
Rope4_Seg09 0.000000 0.000000 0.000000 0.000000 0.000000 0.000000 10.000000 
L_rear_hand01 0.000000 0.000000 0.000000 0.000000 0.000000 0.000000 10.000000 
L_rear_hand02 0.000000 0.000000 0.000000 0.000000 0.000000 0.000000 10.000000 
L_rear_hand03 0.000000 0.000000 0.000000 0.000000 0.000000 0.000000 10.000000 
#Beginning of Data. Separated by tabs
#Fr	Tx	Ty	Tz	Rx	Ry	Rz	SF
[MASTER]
43 -109.744415 -11502.744141 -38.568588 0.000000 -0.002347 -90.000000 11503.331055
44 -244.579269 -11856.318359 -76.782120 0.000000 -0.002347 -90.000000 11859.088867
[root]
43 -62.822281 16.502287 1500.000000 -67.910278 -18.179571 153.489975 1501.405640
44 -62.822281 16.502289 1500.000000 -64.474770 -19.607098 155.349457 1501.405640
[chest]
43 -84.512650 -34.090519 0.000000 27.188431 -5.074317 -173.676331 91.129311
44 -84.512650 -34.090519 0.000000 24.222126 -5.099566 -174.328506 91.129311
[L_mid_tent01]
43 27.300188 22.177578 -249.918259 -3.819961 -1.230422 8.115788 252.381226
44 27.300203 22.177578 -249.918259 -2.695714 -0.425535 17.443081 252.381226
[R_mid_tent01]
43 23.228794 24.509907 226.238495 -177.351837 -40.397720 53.401966 228.744751
44 23.228794 24.509907 226.238495 -175.728851 -34.732319 51.110325 228.744751
[spine01]
43 -0.361383 -0.195265 0.000000 0.001687 0.001632 1.890996 0.410763
44 -0.361383 -0.195265 0.000000 0.001687 0.001632 1.890996 0.410763
[Bip01_Neck]
43 165.484543 71.581718 0.000119 176.643677 -1.657967 43.431911 180.302734
44 165.484543 71.581718 0.000119 176.643677 -1.657967 43.431911 180.302734
[L_humerus]
43 -13.983130 -135.272980 -120.471481 129.367462 68.542809 -140.858734 181.680161
44 -13.983130 -135.272980 -120.471481 143.567688 69.742828 -125.650467 181.680161
[R_humerus]
43 -13.983309 -135.273102 125.287651 -172.027695 -67.971855 -92.935928 184.909012
44 -13.983309 -135.273102 125.287651 -172.310257 -67.115814 -92.634903 184.909012
[weapon_bone]
43 235.964890 -300.705902 0.000000 0.000000 -89.951546 -128.212341 382.234833
44 235.964890 -300.705902 0.000000 0.000000 -89.951546 -128.212341 382.234833
[Bip01_Head]
43 213.444397 185.716599 11.764289 20.267218 5.572792 -43.846436 283.174103
44 213.444458 185.716507 11.765264 20.598820 5.298609 -43.850136 283.174103
[eye_left_bone]
43 -24.626970 125.451866 -64.772606 0.000000 -90.000000 -99.840431 143.318359
44 -24.626970 125.451866 -64.772606 0.000000 -90.000000 -99.840431 143.318359
[eye_right_bone]
43 -24.626970 125.451866 64.327362 0.000000 -89.965736 80.156380 143.117676
44 -24.626970 125.451866 64.327362 0.000000 -89.965736 80.156380 143.117676
[L_forearm]
43 322.776093 0.000000 -0.000119 0.000119 -0.002344 -95.807457 322.776093
44 322.776093 0.000000 -0.000119 0.000119 -0.002344 -95.807457 322.776093
[L_front_hand]
43 241.149185 -0.042021 -3.300071 -178.667953 -1.835447 -27.422350 241.171753
44 241.149185 -0.042021 -3.300071 -178.667953 -1.835447 -27.422350 241.171753
[L_weapon_bone]
43 156.183838 0.000000 0.000000 0.000014 0.000007 0.000001 156.183838
44 156.183838 0.000000 0.000000 0.000014 0.000007 0.000001 156.183838
[L_front_hand01_01]
43 86.095154 20.947098 -0.655860 -0.366594 -0.477154 75.385574 88.609184
44 86.095154 20.947098 -0.655860 -0.366594 -0.477154 75.385574 88.609184
[L_front_hand02_01]
43 86.935165 -11.437475 24.513514 154.399796 -59.883835 -61.369587 91.046425
44 86.935165 -11.437475 24.513514 154.399796 -59.883835 -61.369587 91.046425
[L_front_hand03_01]
43 86.637497 -14.123976 -20.424902 -153.913849 58.118122 -62.702866 90.126129
44 86.637497 -14.123976 -20.424902 -153.913849 58.118122 -62.702866 90.126129
[L_front_hand01_02]
43 71.020905 -0.000179 0.000030 0.000334 -0.002323 -106.379005 71.020905
44 71.020905 -0.000179 0.000030 0.000334 -0.002323 -106.379684 71.020905
[L_front_hand02_02]
43 71.020927 -0.000119 0.000060 0.000334 -0.002323 -106.379005 71.020927
44 71.020927 -0.000119 0.000060 0.000334 -0.002323 -106.379684 71.020927
[L_front_hand03_02]
43 71.020905 -0.000060 0.000060 0.000334 -0.002323 -106.379005 71.020905
44 71.020905 -0.000060 0.000060 0.000334 -0.002323 -106.379684 71.020905
[R_forearm]
43 322.776428 -0.000060 0.000030 0.209504 0.012586 -94.339050 322.776428
44 322.776428 -0.000060 0.000030 0.209504 0.012586 -94.339050 322.776428
[R_front_hand]
43 238.847015 -0.006795 2.210259 -2.635298 -10.645461 -26.312506 238.857239
44 238.847015 -0.006795 2.210259 -2.635298 -10.645461 -26.312506 238.857239
[R_weapon_bone]
43 155.664093 0.002503 -0.000030 0.003487 0.001180 -90.988930 155.664078
44 155.664093 0.002503 -0.000030 0.003487 0.001180 -90.988930 155.664078
[R_front_hand01_01]
43 87.624611 14.231146 22.918642 -154.633499 -59.950619 61.746044 91.683487
44 87.624611 14.231146 22.918642 -154.633499 -59.950619 61.746044 91.683487
[R_front_hand02_01]
43 89.356956 14.367283 -19.491137 154.602661 58.302849 63.744389 92.579636
44 89.356956 14.367283 -19.491137 154.602661 58.302849 63.744389 92.579636
[R_front_hand03_01]
43 87.286232 -22.307278 -0.143439 0.162155 -0.423168 -75.767906 90.091743
44 87.286232 -22.307278 -0.143439 0.162155 -0.423168 -75.767921 90.091743
[R_front_hand01_02]
43 71.020905 0.000060 0.000119 0.002323 -0.000334 106.381714 71.020905
44 71.020905 0.000060 0.000119 0.002323 -0.000334 106.381714 71.020905
[R_front_hand02_02]
43 71.020844 -0.000030 -0.000119 0.002323 -0.000334 106.381714 71.020836
44 71.020844 -0.000030 -0.000119 0.002323 -0.000334 106.381714 71.020836
[R_front_hand03_02]
43 71.020905 0.000000 0.000030 0.002323 -0.000334 106.381714 71.020905
44 71.020905 0.000000 0.000030 0.002323 -0.000334 106.381714 71.020905
[null_rope01_connect]
43 328.732483 0.000000 -0.000238 46.642677 64.880272 -28.935888 328.732483
44 328.732483 0.000000 -0.000238 34.194878 64.037148 -48.716984 328.732483
[Rope1_Seg01]
43 0.000034 0.000932 0.000000 -76.672585 31.559715 70.406181 0.000933
44 0.000034 0.000954 0.000000 -111.895172 34.738068 63.953896 0.000955
[Rope1_Seg02]
43 139.999863 -0.000179 0.000000 -28.441164 3.305877 11.364943 139.999863
44 139.999863 -0.000179 0.000000 -12.878191 -9.417698 20.911129 139.999863
[Rope1_Seg03]
43 139.999924 0.000060 -0.000060 -18.526714 -5.068895 29.092897 139.999924
44 139.999924 0.000060 -0.000060 -8.080828 -18.390593 29.628309 139.999924
[Rope1_Seg04]
43 139.999924 -0.000060 -0.000119 100.711411 4.019291 -81.967743 139.999924
44 139.999924 -0.000060 -0.000119 -65.190193 -64.741966 73.920540 139.999924
[Rope1_Seg05]
43 139.999832 0.000119 -0.000060 4.652335 -57.521069 12.637159 139.999832
44 139.999832 0.000119 -0.000060 -108.161438 -58.835941 14.564898 139.999832
[Rope1_Seg06]
43 139.999954 0.000119 -0.000060 -0.003285 0.001660 0.001660 139.999954
44 139.999954 0.000119 -0.000060 -0.003285 0.001660 0.001660 139.999954
[Rope1_Seg07]
43 139.999985 0.000060 0.000000 0.006605 0.001660 0.001660 139.999985
44 139.999985 0.000060 0.000000 0.006605 0.001660 0.001660 139.999985
[Rope1_Seg09]
43 121.602913 0.000119 -0.000089 -89.793175 -1.359789 0.847147 121.602913
44 121.602913 0.000119 -0.000089 -89.793175 -1.359789 0.847147 121.602913
[L_mid_hand01]
43 103.859421 1.038730 8.195221 130.544373 -67.584534 -38.866943 104.187431
44 103.859421 1.038730 8.195221 130.544373 -67.584534 -38.866943 104.187431
[L_mid_hand02]
43 105.572853 -4.139662 -10.864139 -168.923172 43.409309 -73.498886 106.211075
44 105.572853 -4.139662 -10.864139 -168.923172 43.409309 -73.498886 106.211075
[L_mid_hand03]
43 104.641464 17.579376 -3.913581 -6.012627 17.808174 74.893669 106.179977
44 104.641464 17.579376 -3.913581 -6.012627 17.808174 74.893669 106.179977
[null_rope02_connect]
43 328.732849 0.000179 -0.000119 155.392181 -44.830578 135.477509 328.732849
44 328.732849 0.000179 -0.000119 156.823273 -45.173363 131.655380 328.732849
[Rope2_Seg01]
43 -0.000047 -0.000045 0.000000 95.815262 11.525005 47.776688 0.000065
44 -0.000046 -0.000042 0.000000 98.354660 14.955089 58.750904 0.000062
[Rope2_Seg02]
43 139.999741 -0.000060 -0.000119 0.080183 0.462610 -1.377910 139.999756
44 139.999741 -0.000060 -0.000119 0.557208 0.622083 -2.458518 139.999756
[Rope2_Seg03]
43 140.000107 0.000030 0.000000 0.156920 0.702014 -2.109345 140.000107
44 140.000107 0.000030 0.000000 1.079011 1.000849 -4.144534 140.000107
[Rope2_Seg04]
43 139.999802 0.000000 -0.000060 0.378937 1.286238 -3.862611 139.999802
44 139.999802 0.000000 -0.000060 3.337350 3.344954 -10.667830 139.999802
[Rope2_Seg05]
43 139.999985 -0.000060 0.000119 2.763277 7.630742 -17.972109 139.999985
44 139.999985 -0.000060 0.000119 21.769060 1.378218 -36.000000 139.999985
[Rope2_Seg06]
43 139.999893 -0.000030 -0.000119 11.211234 -15.793609 -20.237232 139.999893
44 139.999893 -0.000030 -0.000119 37.770889 -38.326153 -49.019402 139.999893
[Rope2_Seg07]
43 139.999893 0.000060 -0.000060 6.352933 -34.558727 -17.877645 139.999893
44 139.999893 0.000060 -0.000060 0.589738 -18.092363 -10.392604 139.999893
[Rope2_Seg09]
43 121.338966 0.000089 -0.000060 33.793236 -1.359788 -0.847141 121.338966
44 121.338966 0.000089 -0.000060 33.793236 -1.359788 -0.847141 121.338966
[R_mid_hand01]
43 104.680779 11.144459 -10.335981 -16.212063 45.237247 70.462852 105.778534
44 104.680779 11.144459 -10.335981 -16.212063 45.237247 70.462852 105.778534
[R_mid_hand02]
43 104.070427 2.443552 8.231699 49.067368 -67.749771 39.286453 104.424065
44 104.070427 2.443552 8.231699 49.067368 -67.749771 39.286453 104.424065
[R_mid_hand03]
43 106.028137 -11.221827 -5.996406 -177.101105 15.551026 -76.585571 106.788818
44 106.028137 -11.221827 -5.996406 -177.101105 15.551026 -76.585571 106.788818
[spine02]
43 129.756927 0.001550 0.000119 -1.023899 -3.926965 6.770993 129.756927
44 129.756927 0.001550 0.000119 -1.023899 -3.926965 6.770993 129.756927
[spine03]
43 78.614281 0.087566 -4.898905 1.040681 4.146420 4.212376 78.766815
44 78.614288 0.087572 -4.898906 1.040681 4.146420 4.212376 78.766823
[pelvis]
43 169.435242 0.051022 0.000000 -25.693615 -0.188073 -10.720215 169.435257
44 169.435242 0.051022 0.000000 -22.220304 -0.187638 -10.720230 169.435257
[null_rope03_connect]
43 -1.257226 -2.466202 137.391083 98.740524 62.813766 24.065544 137.418976
44 -1.257226 -2.466202 137.391083 83.415199 66.917122 11.665228 137.418976
[null_rope04_connect]
43 -1.259640 -2.480268 -137.844437 98.740524 62.813766 24.065544 137.872513
44 -1.259640 -2.480268 -137.844437 83.415199 66.917122 11.665228 137.872513
[Rope3_Seg01]
43 0.000034 0.000932 0.000000 -127.508690 -11.966884 87.134041 0.000933
44 0.000034 0.000954 0.000000 -128.510559 -14.689428 92.114716 0.000955
[Rope3_Seg02]
43 139.999924 -0.000119 0.000060 0.847049 2.930391 -7.844327 139.999924
44 139.999924 -0.000119 0.000060 -0.057607 1.239739 -13.244051 139.999924
[Rope3_Seg03]
43 139.999924 -0.000119 0.000119 0.101164 1.607041 -11.297442 139.999924
44 139.999924 -0.000119 0.000119 -2.567360 0.620084 -18.775787 139.999924
[Rope3_Seg04]
43 139.999924 0.000119 0.000000 -0.612976 17.638170 -4.443748 139.999924
44 139.999924 0.000119 0.000000 -13.409216 21.108288 -17.438702 139.999924
[Rope3_Seg05]
43 139.999924 -0.000238 0.000060 1.232846 14.242025 -2.755515 139.999924
44 139.999924 -0.000238 0.000060 -7.747835 16.829641 -9.481294 139.999924
[Rope3_Seg06]
43 139.999893 -0.000119 -0.000060 1.394908 6.312446 -1.684955 139.999893
44 139.999893 -0.000119 -0.000060 -1.498694 5.587240 -2.428787 139.999893
[Rope3_Seg07]
43 139.999771 0.000060 -0.000119 0.677219 0.893450 -0.260140 139.999771
44 139.999771 0.000060 -0.000119 0.506119 0.001656 0.001666 139.999771
[Rope3_Seg08]
43 139.999985 -0.000060 0.000000 0.535796 0.001652 0.001667 139.999985
44 139.999985 -0.000060 0.000000 0.535796 0.001652 0.001667 139.999985
[Rope3_Seg09]
43 90.185997 -0.000179 -0.000060 89.793228 -1.359877 -0.847183 90.185997
44 90.185997 -0.000179 -0.000060 89.793228 -1.359877 -0.847183 90.185997
[R_rear_hand01]
43 103.366196 -6.073594 -10.757982 -177.714203 24.565960 -73.910950 104.101845
44 103.366196 -6.073594 -10.757982 -177.714203 24.565960 -73.910950 104.101845
[R_rear_hand02]
43 100.509819 12.039542 -7.992327 -12.874829 36.868488 72.167213 101.543350
44 100.509819 12.039542 -7.992327 -12.874829 36.868488 72.167213 101.543350
[R_rear_hand03]
43 101.539970 5.215704 5.435467 71.484581 -71.816628 21.513813 101.819031
44 101.539970 5.215704 5.435467 71.484581 -71.816628 21.513813 101.819031
[Rope4_Seg01]
43 0.000007 0.000941 -0.000153 49.111004 -14.442370 79.244171 0.000954
44 0.000007 0.000963 -0.000153 49.720886 -15.366016 76.944954 0.000975
[Rope4_Seg02]
43 139.999985 0.000060 0.000119 0.769108 -12.970458 5.431609 139.999985
44 139.999985 0.000060 0.000119 1.683046 -17.736124 10.166017 139.999985
[Rope4_Seg03]
43 139.999924 0.000000 -0.000238 5.577912 -24.301409 13.921430 139.999924
44 139.999924 0.000000 -0.000238 8.972146 -27.310511 20.251093 139.999924
[Rope4_Seg04]
43 139.999985 0.000000 0.000119 -18.568321 -27.554420 -34.350845 139.999985
44 139.999985 0.000000 0.000119 25.842880 -37.920013 35.909008 139.999985
[Rope4_Seg05]
43 139.999802 -0.000060 -0.000119 -90.660378 -0.877674 -95.261559 139.999802
44 139.999802 -0.000060 -0.000119 16.455448 -17.004192 87.514809 139.999802
[Rope4_Seg06]
43 139.999924 0.000000 0.000060 0.110465 0.001658 0.001661 139.999924
44 139.999924 0.000000 0.000060 -0.278824 1.678856 5.524639 139.999924
[Rope4_Seg07]
43 139.999802 0.000000 0.000000 0.140142 0.001658 0.001662 139.999802
44 139.999802 0.000000 0.000000 0.140142 0.001658 0.001662 139.999802
[Rope4_Seg08]
43 139.999924 0.000000 0.000119 -1.447465 0.001681 0.001639 139.999924
44 139.999924 0.000000 0.000119 -1.447465 0.001681 0.001639 139.999924
[Rope4_Seg09]
43 90.185791 0.000060 0.000060 -135.617828 2.228885 0.850567 90.185791
44 90.185791 0.000060 0.000060 -135.617828 2.228885 0.850567 90.185791
[L_rear_hand01]
43 101.696655 -8.392275 -7.654577 -12.874829 -36.868488 107.832764 102.329041
44 101.696655 -8.392275 -7.654577 -12.874829 -36.868488 107.832764 102.329041
[L_rear_hand02]
43 102.726799 -1.568258 5.773216 71.484581 71.816628 158.486160 102.900848
44 102.726799 -1.568258 5.773216 71.484581 71.816628 158.486160 102.900848
[L_rear_hand03]
43 104.552910 9.721220 -10.420293 -177.714203 -24.565960 -106.089035 105.519653
44 104.552910 9.721220 -10.420293 -177.714203 -24.565960 -106.089035 105.519653
